<?xml version="1.0" ?><svg enable-background="new 0 0 64 64" height="64px" id="Layer_1" version="1.1" viewBox="0 0 64 64" width="64px" xml:space="preserve" xmlns="http://www.w3.org/2000/svg" xmlns:xlink="http://www.w3.org/1999/xlink"><circle cx="32" cy="32" fill="#E0E0D1" r="32"/><g><path d="M20,50c0,1.105-0.895,2-2,2h-2c-1.105,0-2-0.895-2-2V39c0-1.105,0.895-2,2-2h2   c1.105,0,2,0.895,2,2V50z" fill="#231F20" opacity="0.2"/><path d="M50,50c0,1.105-0.895,2-2,2h-2c-1.105,0-2-0.895-2-2V39c0-1.105,0.895-2,2-2h2   c1.105,0,2,0.895,2,2V50z" fill="#231F20" opacity="0.2"/><path d="M20,48c0,1.105-0.895,2-2,2h-2c-1.105,0-2-0.895-2-2V37c0-1.105,0.895-2,2-2h2c1.105,0,2,0.895,2,2V48z" fill="#4F5D73"/><path d="M50,48c0,1.105-0.895,2-2,2h-2c-1.105,0-2-0.895-2-2V37c0-1.105,0.895-2,2-2h2c1.105,0,2,0.895,2,2V48z" fill="#4F5D73"/><g opacity="0.2"><path d="M44,37H20c-3.309,0-6-2.691-6-6l0.039-0.392l2.03-10.129C16.995,17.048,19.212,15,22,15h20    c2.788,0,5.005,2.048,5.931,5.479l0.03,0.129L50,31C50,34.309,47.309,37,44,37z M18.007,31.165C18.091,32.19,18.953,33,20,33h24    c1.047,0,1.909-0.81,1.993-1.835l-1.94-9.704C43.833,20.674,43.222,19,42,19H22c-1.222,0-1.833,1.674-2.053,2.461L18.007,31.165z" fill="#231F20"/></g><path d="M48,29c0,2.209-1.791,4-4,4H20   c-2.209,0-4-1.791-4-4l2-10c0.54-2,1.791-4,4-4h20c2.209,0,3.46,2,4,4L48,29z" fill="none" stroke="#C75C5C" stroke-miterlimit="10" stroke-width="4"/><g opacity="0.2"><path d="M52,42c0,2.209-1.791,4-4,4H16c-2.209,0-4-1.791-4-4v-5c0-2.209,1.791-4,4-4h32c2.209,0,4,1.791,4,4V42z" fill="#231F20"/><path d="M48,48H16c-3.309,0-6-2.691-6-6v-5c0-3.309,2.691-6,6-6h32c3.309,0,6,2.691,6,6v5    C54,45.309,51.309,48,48,48z M16,35c-1.103,0-2,0.897-2,2v5c0,1.103,0.897,2,2,2h32c1.103,0,2-0.897,2-2v-5c0-1.103-0.897-2-2-2    H16z" fill="#231F20"/></g><path d="M52,40c0,2.209-1.791,4-4,4H16   c-2.209,0-4-1.791-4-4v-5c0-2.209,1.791-4,4-4h32c2.209,0,4,1.791,4,4V40z" fill="#C75C5C" stroke="#C75C5C" stroke-miterlimit="10" stroke-width="4"/><path d="M21,38c0,2.209-1.791,4-4,4l0,0   c-2.209,0-4-1.791-4-4l0,0c0-2.209,1.791-4,4-4l0,0C19.209,34,21,35.791,21,38L21,38z" fill="#F5CF87" stroke="#C75C5C" stroke-miterlimit="10" stroke-width="2"/><path d="M51,38c0,2.209-1.791,4-4,4l0,0   c-2.209,0-4-1.791-4-4l0,0c0-2.209,1.791-4,4-4l0,0C49.209,34,51,35.791,51,38L51,38z" fill="#F5CF87" stroke="#C75C5C" stroke-miterlimit="10" stroke-width="2"/></g></svg>